<?xml version="1.0" encoding="utf-8"?>
<!-- Generator: Adobe Illustrator 19.0.0, SVG Export Plug-In . SVG Version: 6.00 Build 0)  -->
<svg version="1.1" id="layer" xmlns="http://www.w3.org/2000/svg" xmlns:xlink="http://www.w3.org/1999/xlink" x="0px" y="0px"
	 viewBox="-141 235 617 79" style="enable-background:new -153 -46 652 652;" xml:space="preserve">
<style type="text/css">
	.st0{fill:#0C8250;}
	.st1{fill:#1E4B9B;}
</style>
<path id="path14" class="st0" d="M15.5,292c-0.7,0-1.3-0.6-1.3-1.3v-45.9c0-0.7,0.6-1.3,1.3-1.3s1.3,0.6,1.3,1.3v45.9
	C16.8,291.4,16.2,292,15.5,292"/>
<path class="st1" d="M-84.6,261.2v0.6c1.5-1.2,3.1-2.1,4.9-2.8c1.8-0.6,3.7-1,5.7-1c0.9,0,1.8,0.1,2.9,0.2c1,0.1,2,0.3,2.8,0.6
	c0.9,0.3,1.6,0.7,2.1,1.3c0.6,0.5,0.9,1.2,0.9,2.1c0,0.4-0.1,0.9-0.3,1.2c-0.2,0.4-0.4,0.7-0.7,1c-0.3,0.3-0.6,0.5-1,0.7
	c-0.4,0.2-0.8,0.2-1.2,0.2c-0.4,0-0.8-0.1-1.3-0.3c-1.3-0.5-2.7-0.7-4.1-0.7c-1.5,0-2.8,0.3-4.1,0.8c-1.3,0.6-2.4,1.3-3.4,2.3
	c-1,1-1.7,2.1-2.3,3.4c-0.5,1.3-0.8,2.7-0.8,4.1v13.8c0,0.9-0.3,1.6-0.9,2.2c-0.6,0.6-1.3,0.9-2.2,0.9c-0.9,0-1.6-0.3-2.2-0.9
	c-0.6-0.6-0.9-1.4-0.9-2.2v-27.5c0-0.9,0.3-1.6,0.9-2.2c0.6-0.6,1.4-0.9,2.2-0.9c0.9,0,1.6,0.3,2.2,0.9
	C-84.9,259.6-84.6,260.4-84.6,261.2 M-105.2,279.1c-0.6,1.3-1.3,2.4-2.3,3.4c-1,1-2.1,1.7-3.4,2.3c-1.3,0.6-2.7,0.8-4.1,0.8
	c-1.5,0-2.9-0.3-4.2-0.8s-2.4-1.3-3.3-2.3c-1-1-1.7-2.1-2.3-3.4c-0.5-1.3-0.8-2.7-0.8-4.1c0-1.5,0.3-2.8,0.8-4.1
	c0.6-1.3,1.3-2.4,2.3-3.4c0.9-1,2.1-1.7,3.3-2.3c1.3-0.6,2.7-0.8,4.2-0.8c1.5,0,2.9,0.3,4.1,0.8c1.3,0.6,2.4,1.3,3.4,2.3
	c1,1,1.7,2.1,2.3,3.4c0.6,1.3,0.8,2.7,0.8,4.1C-104.4,276.5-104.7,277.8-105.2,279.1z M-98.1,261.2c0-0.9-0.3-1.6-0.9-2.2
	c-0.6-0.6-1.4-0.9-2.2-0.9c-0.9,0-1.6,0.3-2.3,0.9c-0.6,0.6-0.9,1.4-0.9,2.2v0.6c-0.2-0.2-0.4-0.3-0.7-0.5c-1.3-1-2.7-1.7-4.1-2.2
	c-0.1,0-0.1,0-0.2-0.1v0c-1.8-0.6-3.7-1-5.7-1c-4.7,0-8.7,1.6-12,5c-3.3,3.3-5,7.3-5,12c0,4.7,1.7,8.7,5,12c3.3,3.3,7.3,5,12,5
	c2,0,3.9-0.3,5.7-1c1.8-0.6,3.4-1.6,4.9-2.8v0.6c0,0.9,0.3,1.6,0.9,2.2c0.6,0.6,1.4,0.9,2.3,0.9c0.9,0,1.6-0.3,2.2-0.9
	c0.6-0.6,0.9-1.4,0.9-2.2V275c0,0,0,0,0,0l0,0L-98.1,261.2 M-15.7,279.1c-0.5,1.3-1.3,2.4-2.3,3.4c-1,1-2.1,1.7-3.4,2.3
	c-1.3,0.6-2.7,0.8-4.1,0.8c-1.5,0-2.9-0.3-4.2-0.8c-1.3-0.6-2.4-1.3-3.4-2.3c-0.9-1-1.7-2.1-2.3-3.4c-0.6-1.3-0.8-2.7-0.8-4.1
	c0-1.5,0.3-2.8,0.8-4.1c0.6-1.3,1.3-2.4,2.3-3.4c0.9-1,2.1-1.7,3.4-2.3c1.3-0.6,2.7-0.8,4.2-0.8c1.5,0,2.9,0.3,4.1,0.8
	c1.3,0.6,2.4,1.3,3.4,2.3c1,1,1.7,2.1,2.3,3.4c0.6,1.3,0.8,2.7,0.8,4.1C-14.8,276.5-15.1,277.8-15.7,279.1L-15.7,279.1z M-8.5,261.2
	c0-0.9-0.3-1.6-0.9-2.2c-0.6-0.6-1.4-0.9-2.2-0.9c-0.9,0-1.6,0.3-2.3,0.9c-0.6,0.6-0.9,1.4-0.9,2.2v0.6c-0.2-0.2-0.5-0.4-0.7-0.5
	c-1.3-0.9-2.6-1.7-4-2.2c-0.1,0-0.1-0.1-0.2-0.1l0,0c-1.8-0.6-3.7-1-5.7-1c-4.7,0-8.7,1.6-12,5c-3.3,3.3-5,7.3-5,12
	c0,4.7,1.7,8.7,5,12c3.3,3.3,7.3,5,12,5c2,0,3.9-0.3,5.7-1c1.8-0.6,3.4-1.6,4.9-2.8v0.6c0,0.9,0.3,1.6,0.9,2.2
	c0.6,0.6,1.4,0.9,2.3,0.9c0.9,0,1.6-0.3,2.2-0.9c0.6-0.6,0.9-1.4,0.9-2.2V275c0,0,0,0,0,0l0,0V261.2 M-59.7,258.1v-11.4
	c0-0.9,0.3-1.6,0.9-2.2c0.6-0.6,1.4-0.9,2.2-0.9c0.9,0,1.6,0.3,2.2,0.9c0.6,0.6,0.9,1.4,0.9,2.2v33c0,4,2,6,6,6
	c0.9,0,1.6,0.3,2.2,0.9c0.6,0.6,0.9,1.2,0.9,2.1c0,0.9-0.3,1.8-0.9,2.4c-0.6,0.6-1.3,0.9-2.2,0.9c-8.2,0-12.3-4.1-12.3-12.3V258.1"
	/>
<path class="st0" d="M45.9,275c0,1.5,0.3,2.8,0.8,4.1c0.6,1.3,1.3,2.4,2.3,3.4s2.1,1.7,3.4,2.3c1.3,0.6,2.7,0.8,4.2,0.8
	c1.5,0,2.9-0.3,4.1-0.8c1.3-0.6,2.4-1.3,3.4-2.3c1-1,1.7-2.1,2.3-3.4c0.6-1.3,0.8-2.6,0.8-4.1c0-1.5-0.3-2.8-0.8-4.1
	c-0.6-1.3-1.3-2.4-2.3-3.4c-1-1-2.1-1.7-3.4-2.3c-1.3-0.6-2.7-0.8-4.1-0.8c-1.5,0-2.9,0.3-4.2,0.8c-1.3,0.6-2.4,1.3-3.4,2.3
	s-1.7,2.1-2.3,3.4C46.2,272.2,45.9,273.6,45.9,275z M56.5,291.9c-4,0-7.6-1.2-10.6-3.7v15.1c0,0.9-0.3,1.7-0.9,2.3
	c-0.6,0.6-1.4,0.9-2.3,0.9c-0.9,0-1.7-0.3-2.3-0.9c-0.6-0.6-0.9-1.3-0.9-2.3V275c0-4.7,1.7-8.7,5-12c3.3-3.3,7.3-5,12-5
	c4.6,0,8.6,1.7,12,5c1.7,1.6,2.9,3.4,3.7,5.5c0.8,2,1.2,4.2,1.2,6.5c0,4.7-1.7,8.7-5,12c-1.7,1.7-3.5,2.9-5.5,3.7
	C61,291.5,58.8,291.9,56.5,291.9 M85.2,261.3v0.6c1.5-1.2,3.1-2.1,4.9-2.8c1.8-0.6,3.7-1,5.7-1c0.9,0,1.8,0.1,2.9,0.2
	c1,0.1,2,0.3,2.8,0.6c0.9,0.3,1.6,0.7,2.1,1.3c0.6,0.5,0.8,1.2,0.8,2.1c0,0.4-0.1,0.9-0.3,1.2c-0.2,0.4-0.4,0.7-0.7,1
	c-0.3,0.3-0.6,0.5-1,0.7c-0.4,0.2-0.8,0.2-1.2,0.2c-0.4,0-0.8-0.1-1.3-0.3c-1.3-0.5-2.6-0.8-4.1-0.8c-1.5,0-2.9,0.3-4.1,0.8
	c-1.3,0.6-2.4,1.3-3.4,2.3c-1,1-1.7,2.1-2.3,3.4c-0.6,1.3-0.8,2.7-0.8,4.1v13.8c0,0.9-0.3,1.6-0.9,2.2s-1.4,0.9-2.2,0.9
	c-0.9,0-1.6-0.3-2.3-0.9c-0.6-0.6-0.9-1.4-0.9-2.2v-27.5c0-0.9,0.3-1.6,0.9-2.2c0.6-0.6,1.4-0.9,2.3-0.9c0.9,0,1.6,0.3,2.2,0.9
	C84.9,259.7,85.2,260.4,85.2,261.3 M122.6,264.4c-1.5,0-2.9,0.3-4.2,0.8c-1.3,0.6-2.4,1.3-3.3,2.3c-0.9,1-1.7,2.1-2.3,3.4
	c-0.6,1.3-0.8,2.7-0.8,4.1c0,1.5,0.3,2.8,0.8,4.1c0.6,1.3,1.3,2.4,2.3,3.4c0.9,1,2.1,1.7,3.3,2.3c1.3,0.6,2.7,0.8,4.2,0.8
	c1.5,0,2.9-0.3,4.1-0.8c1.3-0.6,2.4-1.3,3.4-2.3c1-1,1.7-2.1,2.3-3.4c0.6-1.3,0.8-2.6,0.8-4.1c0-1.5-0.3-2.8-0.8-4.1
	s-1.3-2.4-2.3-3.4c-1-1-2.1-1.7-3.4-2.3C125.5,264.7,124.1,264.4,122.6,264.4z M139.5,275c0,4.7-1.7,8.7-5,12c-3.3,3.3-7.3,5-12,5
	c-4.7,0-8.7-1.7-12-5c-3.3-3.3-5-7.3-5-12c0-4.7,1.7-8.7,5-12c3.3-3.3,7.3-5,12-5c4.6,0,8.6,1.7,12,5c1.7,1.7,2.9,3.5,3.7,5.5
	C139.1,270.5,139.5,272.7,139.5,275 M151.2,275c0,1.5,0.3,2.8,0.8,4.1s1.3,2.4,2.3,3.4c1,1,2.1,1.7,3.4,2.3c1.3,0.6,2.7,0.8,4.2,0.8
	c1.5,0,2.9-0.3,4.1-0.8c1.3-0.6,2.4-1.3,3.4-2.3c1-1,1.7-2.1,2.3-3.4c0.6-1.3,0.8-2.6,0.8-4.1c0-1.5-0.3-2.8-0.8-4.1
	s-1.3-2.4-2.3-3.4c-1-1-2.1-1.7-3.4-2.3c-1.3-0.6-2.7-0.8-4.1-0.8c-1.5,0-2.9,0.3-4.2,0.8c-1.3,0.6-2.4,1.3-3.4,2.3
	c-0.9,1-1.7,2.1-2.3,3.4C151.5,272.2,151.2,273.6,151.2,275z M161.8,291.9c-4,0-7.6-1.2-10.6-3.7v15.1c0,0.9-0.3,1.7-0.9,2.3
	c-0.6,0.6-1.4,0.9-2.3,0.9c-0.9,0-1.7-0.3-2.3-0.9c-0.6-0.6-0.9-1.3-0.9-2.3V275c0-4.7,1.7-8.7,5-12c3.3-3.3,7.3-5,12-5
	c4.6,0,8.6,1.7,12,5c1.7,1.6,2.9,3.4,3.7,5.5c0.8,2,1.2,4.2,1.2,6.5c0,4.7-1.7,8.7-5,12c-1.7,1.7-3.5,2.9-5.5,3.7
	C166.3,291.5,164.1,291.9,161.8,291.9 M211.2,271.9c-0.3-1.1-0.9-2.1-1.5-3c-0.7-0.9-1.5-1.7-2.4-2.4c-0.9-0.7-1.9-1.2-3-1.5
	c-1.1-0.4-2.2-0.5-3.3-0.5s-2.3,0.2-3.4,0.5c-1.1,0.4-2.1,0.9-3,1.5c-0.9,0.7-1.7,1.4-2.4,2.4c-0.7,0.9-1.2,1.9-1.5,3H211.2
	L211.2,271.9z M209.9,282.4c0.9,0,1.7,0.3,2.2,0.9c0.6,0.6,0.9,1.3,0.9,2.3c0,0.9-0.3,1.6-0.9,2.3c-3.1,2.7-6.8,4.1-11.1,4.1
	c-4.7,0-8.7-1.7-12-5c-3.3-3.3-5-7.3-5-12c0-4.7,1.7-8.7,5-12c3.3-3.3,7.3-5,12-5c4.6,0,8.6,1.7,12,5c1.7,1.6,2.9,3.4,3.7,5.5
	c0.8,2,1.2,4.2,1.2,6.5c0,0.9-0.3,1.7-0.9,2.3c-0.6,0.6-1.4,0.9-2.3,0.9h-23.9c0.3,1.1,0.8,2.1,1.5,3c0.7,0.9,1.4,1.7,2.3,2.4
	c0.9,0.7,1.9,1.2,3,1.5c1.1,0.4,2.2,0.5,3.4,0.5c1.3,0,2.5-0.2,3.7-0.6c1.1-0.4,2.1-1,3.1-1.8C208.4,282.7,209.1,282.5,209.9,282.4
	 M229.8,261.3v0.6c1.5-1.2,3.2-2.1,4.9-2.8c1.8-0.6,3.7-1,5.7-1c0.9,0,1.8,0.1,2.9,0.2c1,0.1,2,0.3,2.8,0.6c0.9,0.3,1.6,0.7,2.1,1.3
	c0.6,0.5,0.9,1.2,0.9,2.1c0,0.4-0.1,0.9-0.3,1.2c-0.2,0.4-0.4,0.7-0.7,1c-0.3,0.3-0.6,0.5-1,0.7c-0.4,0.2-0.8,0.2-1.2,0.2
	c-0.4,0-0.8-0.1-1.3-0.3c-1.3-0.5-2.7-0.8-4.1-0.8c-1.5,0-2.8,0.3-4.1,0.8c-1.3,0.6-2.4,1.3-3.4,2.3c-1,1-1.7,2.1-2.3,3.4
	c-0.6,1.3-0.8,2.7-0.8,4.1v13.8c0,0.9-0.3,1.6-0.9,2.2c-0.6,0.6-1.4,0.9-2.2,0.9c-0.9,0-1.6-0.3-2.3-0.9c-0.6-0.6-0.9-1.4-0.9-2.2
	v-27.5c0-0.9,0.3-1.6,0.9-2.2c0.6-0.6,1.4-0.9,2.3-0.9c0.9,0,1.6,0.3,2.2,0.9C229.5,259.7,229.8,260.4,229.8,261.3 M256.8,258.6h3.5
	v-12c0-0.9,0.3-1.6,0.9-2.2c0.6-0.6,1.4-0.9,2.3-0.9c0.9,0,1.6,0.3,2.2,0.9s0.9,1.4,0.9,2.2v12h5.8c0.9,0,1.6,0.3,2.2,0.9
	c0.6,0.6,0.9,1.4,0.9,2.2c0,0.9-0.3,1.6-0.9,2.3c-0.6,0.6-1.3,0.9-2.2,0.9h-5.8v14.7c0,4,2,6,6,6c0.9,0,1.6,0.3,2.2,0.9
	c0.6,0.6,0.9,1.4,0.9,2.2c0,0.9-0.3,1.6-0.9,2.3c-0.6,0.6-1.3,0.9-2.2,0.9c-8.2,0-12.4-4.1-12.4-12.3V265h-3.5
	c-0.8,0-1.6-0.3-2.2-0.9c-0.6-0.6-0.9-1.4-0.9-2.3c0-0.9,0.3-1.6,0.9-2.2C255.2,258.9,256,258.6,256.8,258.6 M291.5,288.8
	l-10.9-26.1c-0.2-0.5-0.3-0.9-0.3-1.4c0-0.4,0.1-0.8,0.2-1.2c0.2-0.4,0.4-0.7,0.7-1s0.6-0.5,1-0.7c0.4-0.2,0.8-0.2,1.2-0.2
	c0.6,0,1.2,0.2,1.7,0.5c0.5,0.3,1,0.9,1.2,1.6l8.5,20.3l8.5-20.3c0.2-0.6,0.6-1.1,1-1.5s1.1-0.6,1.9-0.6c0.4,0,0.9,0.1,1.2,0.2
	c0.4,0.2,0.7,0.4,1,0.7c0.3,0.3,0.5,0.6,0.7,1c0.2,0.4,0.3,0.8,0.3,1.2c0,0.4-0.1,0.9-0.3,1.4l-17.4,41.6c-0.3,0.6-0.7,1.1-1.2,1.5
	c-0.5,0.4-1.1,0.6-1.8,0.6c-0.9,0-1.7-0.3-2.3-0.9c-0.6-0.6-0.9-1.4-0.9-2.3c0-0.5,0.1-1,0.3-1.4L291.5,288.8 M362.8,288.8
	c0,0.9-0.3,1.6-0.9,2.3c-0.6,0.6-1.4,0.9-2.2,0.9c-0.9,0-1.6-0.3-2.2-0.9c-0.6-0.6-0.9-1.4-0.9-2.3v-17.2c0-1-0.2-1.9-0.6-2.7
	c-0.4-0.9-0.9-1.6-1.5-2.3c-0.6-0.7-1.4-1.2-2.3-1.6c-0.9-0.4-1.8-0.6-2.8-0.6c-1,0-1.9,0.2-2.8,0.6s-1.6,0.9-2.3,1.5
	c-0.7,0.6-1.2,1.4-1.5,2.3c-0.4,0.9-0.6,1.8-0.6,2.8v17.2c0,0.9-0.3,1.6-0.9,2.3c-0.6,0.6-1.4,0.9-2.2,0.9c-0.9,0-1.6-0.3-2.3-0.9
	c-0.6-0.6-0.9-1.4-0.9-2.3v-17.2c0-1-0.2-1.9-0.6-2.8c-0.4-0.9-0.9-1.6-1.5-2.3c-0.6-0.6-1.4-1.2-2.3-1.5c-0.9-0.4-1.8-0.6-2.8-0.6
	c-1,0-1.9,0.2-2.8,0.6s-1.6,0.9-2.3,1.5c-0.7,0.7-1.2,1.4-1.5,2.3c-0.4,0.9-0.6,1.8-0.6,2.8v17.2c0,0.9-0.3,1.6-0.9,2.3
	c-0.6,0.6-1.4,0.9-2.2,0.9c-0.9,0-1.6-0.3-2.3-0.9c-0.6-0.6-0.9-1.4-0.9-2.3v-27.5c0-0.9,0.3-1.6,0.9-2.2c0.6-0.6,1.4-0.9,2.2-0.9
	c0.7,0,1.3,0.2,1.9,0.6c0.5,0.4,0.9,0.9,1.1,1.6c2.2-1.4,4.6-2.1,7.3-2.1c2,0,3.9,0.4,5.7,1.2c1.8,0.8,3.3,2,4.7,3.6
	c2.8-3.2,6.2-4.8,10.3-4.8c1.8,0,3.6,0.4,5.2,1.1c1.6,0.7,3.1,1.7,4.3,2.9c1.2,1.2,2.2,2.6,2.9,4.3c0.7,1.6,1.1,3.4,1.1,5.2
	L362.8,288.8 M415.8,261.3v0.6c1.5-1.2,3.1-2.1,4.9-2.8c1.8-0.6,3.7-1,5.7-1c0.9,0,1.8,0.1,2.9,0.2c1,0.1,2,0.3,2.8,0.6
	c0.9,0.3,1.6,0.7,2.1,1.3c0.6,0.5,0.8,1.2,0.8,2.1c0,0.4-0.1,0.9-0.3,1.2c-0.2,0.4-0.4,0.7-0.7,1c-0.3,0.3-0.6,0.5-1,0.7
	c-0.4,0.2-0.8,0.2-1.2,0.2c-0.4,0-0.8-0.1-1.3-0.3c-1.3-0.5-2.6-0.8-4.1-0.8c-1.5,0-2.8,0.3-4.1,0.8c-1.3,0.6-2.4,1.3-3.4,2.3
	c-1,1-1.7,2.1-2.3,3.4c-0.6,1.3-0.8,2.7-0.8,4.1v13.8c0,0.9-0.3,1.6-0.9,2.2c-0.6,0.6-1.4,0.9-2.2,0.9c-0.9,0-1.6-0.3-2.3-0.9
	s-0.9-1.4-0.9-2.2v-27.5c0-0.9,0.3-1.6,0.9-2.2c0.6-0.6,1.4-0.9,2.3-0.9c0.9,0,1.6,0.3,2.2,0.9C415.5,259.7,415.8,260.4,415.8,261.3
	 M467.2,286.5L454,271.6l8.9-8.3c0.7-0.7,1-1.6,0.8-2.7c-0.1-0.4-0.2-0.8-0.5-1.1c-0.2-0.3-0.5-0.6-0.8-0.9
	c-0.3-0.2-0.7-0.4-1.1-0.5c-0.4-0.1-0.8-0.1-1.3,0c-0.6,0.1-1.1,0.4-1.6,0.8L447,269.6v-22.9c0-0.9-0.3-1.6-0.9-2.3
	s-1.4-0.9-2.2-0.9c-0.9,0-1.6,0.3-2.3,0.9c-0.6,0.6-0.9,1.4-0.9,2.3v42c0,0.9,0.3,1.6,0.9,2.2c0.6,0.6,1.4,0.9,2.3,0.9
	c0.9,0,1.6-0.3,2.2-0.9c0.6-0.6,0.9-1.4,0.9-2.2v-10.6l0.2-0.2l2.2-2l13.5,15.1c0.6,0.5,1.3,0.8,2.1,0.8c0.4,0,0.9-0.1,1.2-0.2
	c0.4-0.2,0.7-0.4,1-0.7c0.3-0.3,0.5-0.6,0.7-1c0.2-0.4,0.3-0.8,0.3-1.2C468.1,287.9,467.8,287.2,467.2,286.5 M395.2,279.2
	c-0.6,1.3-1.3,2.4-2.3,3.4c-1,1-2.1,1.7-3.4,2.3c-1.3,0.6-2.7,0.8-4.2,0.8c-1.5,0-2.9-0.3-4.2-0.8c-1.3-0.6-2.4-1.3-3.4-2.3
	c-1-1-1.7-2.1-2.3-3.4c-0.6-1.3-0.8-2.7-0.8-4.1s0.3-2.8,0.8-4.1s1.3-2.4,2.3-3.4c1-1,2.1-1.7,3.4-2.3c1.3-0.6,2.7-0.9,4.2-0.9
	c1.5,0,2.9,0.3,4.2,0.9c1.3,0.6,2.4,1.3,3.4,2.3c1,1,1.7,2.1,2.3,3.4c0.6,1.3,0.8,2.7,0.8,4.1C396,276.5,395.7,277.9,395.2,279.2z
	 M402.3,261.3c0-0.9-0.3-1.6-0.9-2.2c-0.6-0.6-1.4-0.9-2.2-0.9c-0.9,0-1.6,0.3-2.3,0.9c-0.6,0.6-0.9,1.4-0.9,2.2v0.6
	c-0.2-0.2-0.4-0.3-0.6-0.4c-1-0.7-2-1.3-3-1.8c0,0,0,0,0,0c-0.4-0.2-0.7-0.3-1.1-0.4c-0.1,0-0.1-0.1-0.2-0.1l0,0
	c-1.8-0.6-3.7-1-5.7-1c-4.7,0-8.7,1.7-12,5c-3.3,3.3-5,7.3-5,12c0,4.7,1.7,8.7,5,12c3.3,3.3,7.3,5,12,5c2,0,3.9-0.3,5.7-1
	c1.8-0.6,3.4-1.6,4.9-2.8v0.6c0,0.9,0.3,1.6,0.9,2.2c0.6,0.6,1.4,0.9,2.3,0.9c0.9,0,1.6-0.3,2.2-0.9c0.6-0.6,0.9-1.4,0.9-2.2v-13.8
	c0,0,0,0,0,0L402.3,261.3"/>
</svg>
